<svg id="Capa_1" enable-background="new 0 0 512 512" height="512" viewBox="0 0 512 512" width="512" xmlns="http://www.w3.org/2000/svg"><path d="m469 0h-341.231c-4.142 0-7.5 3.358-7.5 7.5s3.358 7.5 7.5 7.5h333.731v35h-411v-1.199c6.216-5.893 8.259-6.578 9.283-9.644l2.61-7.81c.898-2.688.205-5.654-1.794-7.665l-8.63-8.682h43.8c4.142 0 7.5-3.358 7.5-7.5s-3.358-7.5-7.5-7.5h-52.769c-4.142 0-7.5 3.358-7.5 7.5v9.116c0 1.981.784 3.882 2.181 5.288l9.021 9.074-.516 1.543-8.193 7.348c-1.586 1.423-2.492 3.453-2.492 5.583v12.048c0 4.142 3.358 7.5 7.5 7.5h12.44v39.39c0 3.066 1.866 5.823 4.712 6.962l8.858 3.547-2.157 12.278-10.855 26.55c-.368.901-.558 1.865-.558 2.838v195.204c0 4.142 3.358 7.5 7.5 7.5s7.5-3.358 7.5-7.5v-193.729l10.603-25.932c.203-.496.352-1.013.444-1.541l3.35-19.069c.614-3.495-1.305-6.941-4.599-8.26l-9.798-3.923v-34.315h371.12v30.769c0 4.142 3.358 7.5 7.5 7.5s7.5-3.358 7.5-7.5v-30.769h12.439c4.142 0 7.5-3.358 7.5-7.5v-50c0-4.142-3.358-7.5-7.5-7.5z"/><path d="m469 447h-12.44v-145.92c0-1.651-.545-3.257-1.551-4.567l-12.955-16.875-2.595-16.706 15.041-15.852c1.322-1.394 2.06-3.242 2.06-5.163v-114.456c0-4.142-3.358-7.5-7.5-7.5s-7.5 3.358-7.5 7.5v111.464l-15.518 16.354c-1.6 1.686-2.327 4.018-1.971 6.314l3.455 22.242c.193 1.243.696 2.418 1.462 3.416l12.572 16.376v143.243h-371.12v-5.836c3.936-1.046 5.582-1.342 5.96-1.403 3.088-.234 5.437-2.326 6.329-5.301l5.666-18.907c.583-1.945.352-4.043-.639-5.815-.991-1.771-2.659-3.066-4.621-3.587l-12.694-3.37v-18.882c0-4.142-3.358-7.5-7.5-7.5s-7.5 3.358-7.5 7.5v24.651c0 3.401 2.289 6.376 5.576 7.249l10.788 2.864-2.166 7.226c-2.087.508-4.936 1.262-8.785 2.377-3.207.929-5.413 3.865-5.413 7.204v11.66h-12.441c-4.142 0-7.5 3.358-7.5 7.5v50c0 4.142 3.358 7.5 7.5 7.5h426c4.142 0 7.5-3.358 7.5-7.5v-12.047c0-2.131-.906-4.161-2.492-5.583l-8.193-7.348-.516-1.543 9.021-9.075c1.397-1.405 2.181-3.306 2.181-5.287v-9.117c-.001-4.142-3.359-7.5-7.501-7.5zm-7.5 50h-411v-35h409.531l-8.63 8.683c-1.999 2.01-2.692 4.976-1.794 7.664l2.61 7.81c.412 1.233 1.138 2.338 2.105 3.207l7.178 6.438z"/></svg>