<?xml version="1.0" encoding="iso-8859-1"?>
<!-- Generator: Adobe Illustrator 19.0.0, SVG Export Plug-In . SVG Version: 6.00 Build 0)  -->
<svg version="1.1" id="Capa_1" xmlns="http://www.w3.org/2000/svg" xmlns:xlink="http://www.w3.org/1999/xlink" x="0px" y="0px"
	 viewBox="0 0 511.989 511.989" style="enable-background:new 0 0 511.989 511.989;" xml:space="preserve">
<path style="fill:#6f389f;" d="M245.328,159.995h21.333c29.455,0,53.333,23.878,53.333,53.333v85.333
	c0,29.455-23.878,53.333-53.333,53.333h-21.333c-29.455,0-53.333-23.878-53.333-53.333v-85.333
	C191.995,183.873,215.873,159.995,245.328,159.995z"/>
<g>
	<path style="fill:#6f389f;" d="M507.984,247.653L401.317,162.32c-4.603-3.676-11.315-2.924-14.991,1.679
		c-1.511,1.892-2.333,4.241-2.331,6.662v170.667c-0.003,5.891,4.769,10.669,10.661,10.673c2.421,0.001,4.77-0.821,6.662-2.331
		l106.667-85.333c4.601-3.679,5.348-10.391,1.669-14.992c-0.493-0.616-1.053-1.176-1.669-1.669V247.653z"/>
	<path style="fill:#6f389f;" d="M121.957,161.061c-3.695-1.778-8.082-1.28-11.285,1.28L4.005,247.675
		c-4.601,3.679-5.348,10.391-1.669,14.992c0.493,0.616,1.053,1.176,1.669,1.669l106.667,85.333
		c4.603,3.676,11.315,2.924,14.991-1.679c1.511-1.892,2.333-4.241,2.331-6.662V170.661
		C127.991,166.568,125.645,162.838,121.957,161.061z"/>
</g>
<g>
</g>
<g>
</g>
<g>
</g>
<g>
</g>
<g>
</g>
<g>
</g>
<g>
</g>
<g>
</g>
<g>
</g>
<g>
</g>
<g>
</g>
<g>
</g>
<g>
</g>
<g>
</g>
<g>
</g>
</svg>
